<?xml version="1.0" encoding="utf-8"?><svg viewBox="0 0 500 500" xmlns="http://www.w3.org/2000/svg" xmlns:xlink="http://www.w3.org/1999/xlink"><style>:root>svg{display:none}:root>svg:target{display:block}</style><svg viewBox="0 0 500 500" fill="none" id="man" xmlns="http://www.w3.org/2000/svg"><path fill-rule="evenodd" clip-rule="evenodd" d="M109.494 39.686c-.076-15.6 12.039-29.136 39.157-29.674 27.118-.538 45.219 16.449 41.978 29.6-4.227 17.16-33.69 21.979-33.211 40.082.073 2.753-17.866 2.5-17.866-.25-.413-18.032 35.371-26.745 35.912-40.169.473-11.769-9.14-18.149-26.666-18.149-12.176 0-22.411 6.273-23.308 18.416-.153 2.567-15.983 2.711-16 .141l.004.003ZM148.385 88.252c6.834 0 12.383 3.674 12.383 8.2s-5.549 8.2-12.383 8.2c-6.834 0-12.38-3.674-12.38-8.2s5.548-8.2 12.38-8.2Z" fill="#E1B100"/><path d="M357.206 110.133c.664 19.4-18.807 48.1-27.092 60.651l-.035.035c-1.923-3.076-5.628-5.593-11.431-6.712 3.88-8.285 11.046-32.615 13.249-42.683-22.478-23.212-81.626-32.406-85.891-25.694-.874 1.328-1.678 2.692-2.482 4.055-26.323-12.55-25.24-60.581-13.249-67.4 5.314-3.041 11.92-1.608 18.143 4.649.28-4.439 4.754-12.619 11.886-13.214 8.04-.7 14.717 5.524 19.3 15.7-.944-7.9 6.153-18.422 17.549-15.486 7.376 1.888 16.43 22.478 26.672 34.538 10.275 12.163 32.752 34.292 33.381 51.561Z" fill="#29263B"/><path d="M279.285 85.1a1.75 1.75 0 0 1-1.655-1.187c-2.728-8.031-2.263-20.478-.269-27.4a1.758 1.758 0 0 1 .834-1.046 1.75 1.75 0 0 1 2.376.684 1.736 1.736 0 0 1 .15 1.33c-1.857 6.446-2.211 18.155.219 25.312a1.748 1.748 0 0 1-.857 2.117c-.247.127-.52.194-.798.194V85.1ZM262.157 84.964a1.747 1.747 0 0 1-1.609-1.064 55.766 55.766 0 0 1-4.108-29.283 1.745 1.745 0 0 1 1.981-1.48 1.75 1.75 0 0 1 1.48 1.98 52.233 52.233 0 0 0 3.864 27.418 1.752 1.752 0 0 1-.781 2.224 1.746 1.746 0 0 1-.827.209v-.004ZM247.9 85.593a1.749 1.749 0 0 1-1.423-.73c-5.636-7.861-8.333-17.511-8.017-28.684a1.721 1.721 0 0 1 1.8-1.7 1.748 1.748 0 0 1 1.7 1.8c-.3 10.538 2.111 19.223 7.364 26.549a1.751 1.751 0 0 1-.508 2.51 1.75 1.75 0 0 1-.91.257l-.006-.002Z" fill="#686674"/><path d="M243.524 99.785c-16.185 27.512-20.66 59.358-18.283 73.236 3.181 18.633 20.377 30.29 36.915 30.29.315 7.656-.279 20.294-.279 20.294s-8.775 1.783-19.577 4.859c-3.46 63.868 69.776 68.272 93.827 5.7a183.396 183.396 0 0 0-28.666-10.312s-.734-24.96 2.028-37.37c16.36 8.18 26.742-6.222 20.59-15.661-1.923-3.076-5.628-5.593-11.431-6.712 3.88-8.285 11.046-32.615 13.249-42.683-22.478-23.212-81.626-32.406-85.891-25.694-.874 1.326-1.678 2.69-2.482 4.053Z" fill="#FFA775"/><path d="M315.326 181.621a.872.872 0 0 1-.687-1.412c3.148-4.031 6.866-6.04 11.365-6.139a.833.833 0 0 1 .828.516.834.834 0 0 1 .065.338.872.872 0 0 1-.854.893c-4 .089-7.183 1.826-10.027 5.468a.867.867 0 0 1-.69.336ZM245.249 118.107a13.03 13.03 0 0 1-5.839-1.446 2.097 2.097 0 0 1-1.261-2.042 2.097 2.097 0 0 1 1.478-1.891 2.106 2.106 0 0 1 1.648.176c4.038 2 7.935 1 12.261-3.164a2.096 2.096 0 0 1 2.347-.497 2.09 2.09 0 0 1 1.281 2.029 2.082 2.082 0 0 1-.207.819 2.083 2.083 0 0 1-.513.672c-3.698 3.559-7.444 5.344-11.195 5.344ZM304.173 127.332a2.103 2.103 0 0 1-2.074-1.8 10.568 10.568 0 0 0-5.161-7.974 8.514 8.514 0 0 0-7.967.063 2.1 2.1 0 0 1-1.823-3.78 12.72 12.72 0 0 1 11.767.018 14.759 14.759 0 0 1 7.338 11.087 2.097 2.097 0 0 1-1.784 2.371 2.435 2.435 0 0 1-.296.015ZM262.54 180.817a.87.87 0 0 1-.862-.735 5.456 5.456 0 0 1 .565-3.738 5.455 5.455 0 0 1 2.861-2.471c3.443-1.384 8.8-.067 12.384 5.119a.872.872 0 0 1-.223 1.216.872.872 0 0 1-1.216-.223c-3.059-4.433-7.5-5.612-10.295-4.49a3.69 3.69 0 0 0-2.35 4.309.872.872 0 0 1-.156.649.871.871 0 0 1-.708.364ZM255.27 161.031a.881.881 0 0 1-.284-.047c-1.012-.347-9.917-3.506-10.612-7.711-.715-4.329 10.355-26.436 13.513-30.724a.872.872 0 0 1 1.222-.186.872.872 0 0 1 .186 1.222c-3.579 4.86-13.739 26.114-13.2 29.4.4 2.4 6.008 5.162 9.454 6.342.195.068.36.202.466.379a.878.878 0 0 1-.186 1.113.874.874 0 0 1-.563.208l.004.004ZM384.508 479.173c-39.188 11.5-139.97 16.57-179.787 1.293l-1.5-143.179-44.669-17.974s24.533-59.562 50.751-77.425c8.11-5.558 21.674-10.208 33-13.424-3.46 63.868 69.776 68.272 93.827 5.7 13.388 6.083 28.944 15.067 40.62 27.442 25.481 26.985 7.758 217.567 7.758 217.567Z" fill="#29263B"/><path fill-rule="evenodd" clip-rule="evenodd" d="M291.14 130.849c2.115.538 2.943 4.46 1.849 8.75s-3.7 7.33-5.814 6.792c-2.114-.538-2.947-4.461-1.852-8.75s3.7-7.331 5.817-6.792ZM246.411 120.739c2.119.542 2.947 4.46 1.853 8.75s-3.7 7.334-5.817 6.792c-2.117-.542-2.943-4.461-1.849-8.746s3.7-7.335 5.813-6.8v.004Z" fill="#29263B"/><path fill-rule="evenodd" clip-rule="evenodd" d="M370.056 317.865s-7.893-22-20.348-24.474c-12.82-2.551-30.363 8.286-44 19.031-11.233-24.446-23.636-56.684-23.775-68.447 7.271-17.143-.137-31.455 17.95-47.913 8.376-7.621-3.712-18.923-15.024-6.072-8.593 9.763-22.8 9.557-30.588 7.956-15.518-3.181-24.1-14.434-27.337-18.894-10.375 1.146-8.163 12.479-5.691 17.405-4.957 1.444-7.222 10.281-3.957 15.731-3.968 2.947-5.744 7.254-.976 15.612-3.831 3.755-2.37 11.249 1.832 14.937 0 0 12.323 8.492 20.7 12.117a577.447 577.447 0 0 0 17.1 81.988c-24.2 4.22-52.55 7.388-52.55 7.388l-.112-6.82-41.68-16.871c-10.8 25.512-16.347 74.358 7.927 84.58 21.382 9 60.7 3.355 103.609-22.3 10.59 21.394 23.726 36.7 39.588 36.716 25.844.031 42.785-24.746 42.785-24.746 4.712-14.084 2.5-28-6.669-38.388-.022-.095-.031-.2-.061-.286 5.268 1.863 12.98-3.3 10.851-8.841 4.6 1.287 8.53-4.786 8.009-13.8 3.411-3.418 4.217-8.621 2.417-15.609Z" fill="#FFA775"/><path d="M349.039 356.657a.872.872 0 0 1-.872-.827c-.39-7.225-3.3-14.072-9.159-21.549a.87.87 0 0 1 .165-1.206.873.873 0 0 1 1.21.128c6.092 7.773 9.119 14.933 9.53 22.533a.878.878 0 0 1-.826.92l-.048.001ZM359.854 347.449a.875.875 0 0 1-.86-.725 44.32 44.32 0 0 0-13.815-25.549.874.874 0 0 1 1.2-1.272 46.631 46.631 0 0 1 14.339 26.524.877.877 0 0 1-.864 1.022ZM367.854 334.372a.873.873 0 0 1-.85-.673c-2.535-10.691-7.605-19.467-15.068-26.08a.867.867 0 0 1-.293-.601.872.872 0 0 1 .819-.925.872.872 0 0 1 .632.218c7.739 6.857 12.991 15.936 15.611 26.986a.878.878 0 0 1-.649 1.052.913.913 0 0 1-.202.023ZM327.846 354.006a.872.872 0 0 1-.764-.447l-6.525-11.678c-9.263-10.821-39.286-79.942-39.5-97.9a.88.88 0 0 1 .069-.351c2.586-6.1 3.29-11.9 3.971-17.518 1.246-10.278 2.423-19.986 14.2-30.7 2.024-1.843 2.881-4.087 2.349-6.159a5.766 5.766 0 0 0-4.379-4.021c-3.7-.884-7.988 1.056-11.751 5.331-8.073 9.173-21.524 10.27-31.42 8.235-10.849-2.223-20.225-8.7-27.868-19.237a.879.879 0 0 1-.059-.988.887.887 0 0 1 .552-.4.87.87 0 0 1 .921.362c2.751 3.793 11.121 15.336 26.805 18.551 3.253.669 19.975 3.438 29.756-7.677 4.206-4.779 9.119-6.921 13.471-5.876a7.5 7.5 0 0 1 5.664 5.285c.7 2.72-.345 5.594-2.865 7.886-11.294 10.277-12.433 19.672-13.638 29.618-.689 5.684-1.4 11.558-4.024 17.819.407 18.053 30.064 86.215 39.128 96.659a.92.92 0 0 1 .1.146l6.568 11.755a.882.882 0 0 1-.327 1.184.881.881 0 0 1-.434.116v.005Z" fill="#29263B"/></svg><svg viewBox="0 0 500 500" fill="none" id="woman" xmlns="http://www.w3.org/2000/svg"><path fill-rule="evenodd" clip-rule="evenodd" d="M341.634 143.016c-.049-10.072 7.775-18.817 25.289-19.164 17.514-.347 29.2 10.623 27.112 19.118-2.73 11.083-21.759 14.2-21.45 25.887.047 1.779-11.538 1.618-11.538-.161-.267-11.646 22.844-17.273 23.193-25.943.306-7.6-5.9-11.721-17.222-11.721-7.864 0-14.474 4.051-15.053 11.893-.1 1.658-10.323 1.751-10.331.091ZM366.752 174.383c4.414 0 8 2.372 8 5.3s-3.583 5.3-8 5.3-8-2.373-8-5.3c0-2.927 3.583-5.3 8-5.3Z" fill="#E1B100"/><path d="M240.275 185.736c2.133 17.249-.058 33.911-3.533 43.127a84.287 84.287 0 0 0-9.342-6.6c1.713 31.652 37.671 57.336 45.3 56.379 8.737-1.082 24.4-29.486 16.9-56.53-5.313 2.895-11.693 6.748-11.693 6.748l2.106-17.215s23.428 1.283 31.9-15.458c8.472-16.741 6.907-67.984 6.907-67.984l-44.308-.4-5.9-18.2-4.212 18.342a90.579 90.579 0 0 0-24.5 3.1l-.118 33.528c-17.396-7.507-21.898 21.755.493 21.163Z" fill="#FFBF9B"/><path d="M280.01 211.648a42.498 42.498 0 0 1-23.726-7.372c1.267 2.9 3.85 4.071 7.3 7.667 4.009 4.156 9 7.236 14.512 8.956l1.914-9.251Z" fill="#F08855"/><path d="M14.27 300.805c5.464 4.2 19.893 17.828 19.893 17.828 2.745 8.737 9.065 10.424 15.763 8.032 4.558 6.975 7.932 8.058 18.961 5.565 2.113 3.249 5.137 5.97 12.013 4.709 4.81-.881 24.955-14.554 24.955-14.554s1.838 3.953 4.935 9.644c22.436.378 32.206-24.249 27.271-43.387-1.511-1.989-2.972-3.928-4.18-5.514-9.468-12.54-17.022-15.033-25.735-13.9-9.241-11.206-22.562-7.756-25.886-8.133-5.615-.68-14.856-6.094-23.594-13.649-8.738-7.555-16.519 5.087-9.8 14.681 3.954 5.666 14.656 12.112 14.177 16.015-.453 3.9-17.425 16.947-17.425 16.947-3.248-6.875-12.691-10.274-16.67-4.407-11.883-7.907-26.261 1.234-14.678 10.123Z" fill="#FFBF9B"/><path d="M34.223 319.6a.629.629 0 0 1-.6-.447c-.264-.868-.544-1.777-.834-2.716-2.862-9.274-6.423-20.816-4.551-25.767a.632.632 0 0 1 .806-.351.63.63 0 0 1 .372.797c-1.72 4.546 1.919 16.339 4.576 24.95.29.941.57 1.851.835 2.721a.628.628 0 0 1-.604.813Z" fill="#29263B"/><path d="M110.788 332.029c8.133 14.932 25.055 41.9 40.843 41.07 21.782-1.159 39.358-42 39.358-42l3.928 83.223c39.257 15.184 81.233 15.36 126.106-.177-.781-29.763.78-58.595 5.64-86.068 0 0 12.339 37.9 34.7 38.25 16.695.252 48.02-37.847 63.28-57.84-4.835-14.479-12.994-26.239-25.257-34.171-11.885 9.317-32.08 24.426-32.08 24.426s-26.617-80.807-43.816-85.042c-10.8-2.669-24.9 3.475-33.893 8.411 7.5 27.044-8.159 55.448-16.9 56.53-7.63.957-43.588-24.727-45.3-56.379-6.219-3.853-14.907-8.26-24.072-9.871a35.366 35.366 0 0 0-14.631.252c-20.723 5.086-42.429 86.848-42.429 86.848s-4.205-5.59-8.209-10.853c4.938 19.142-4.832 43.769-27.268 43.391Z" fill="#FF6B55"/><path d="M68.85 332.837a.635.635 0 0 1-.564-.348c-.392-.785-1.852-3.042-3.7-5.9C61.166 321.3 56 313.307 52.451 306.7c-1.176-2.191-.333-4.709 2.147-6.414 3.878-2.666 10.417-2.7 14.9 2.494a123.631 123.631 0 0 1 8.938 12.714c3.333-1.219 5.571-6.516 7.934-12.111a59.877 59.877 0 0 1 5.313-10.625.637.637 0 0 1 .407-.275.64.64 0 0 1 .48.101.635.635 0 0 1 .253.666.632.632 0 0 1-.106.227 59.036 59.036 0 0 0-5.187 10.4C84.942 310 82.5 315.8 78.312 316.848a.624.624 0 0 1-.689-.281 130.318 130.318 0 0 0-9.076-12.967c-4.006-4.639-9.81-4.637-13.235-2.281-1.525 1.048-2.786 2.855-1.752 4.782 3.521 6.561 8.673 14.529 12.083 19.8 1.942 3 3.345 5.173 3.77 6.02a.627.627 0 0 1-.563.911v.005Z" fill="#29263B"/><path d="M49.964 327.322a.629.629 0 0 1-.547-.319l-.869-1.532c-2.779-4.907-6.586-11.626-10.5-17.794-1.879-2.959-1.4-5.96 1.274-8.03 3.884-3 11.257-3.112 15.312 1.235a.62.62 0 0 1 .169.451.627.627 0 0 1-.41.568.645.645 0 0 1-.48-.017.649.649 0 0 1-.2-.144c-3.607-3.867-10.167-3.769-13.62-1.1-1.258.971-3.057 3.09-.983 6.358 3.934 6.194 7.75 12.93 10.535 17.849l.868 1.531a.629.629 0 0 1-.237.858.613.613 0 0 1-.312.086ZM99.893 273.481a.633.633 0 0 1-.59-.411.626.626 0 0 1 .18-.696 19.475 19.475 0 0 1 8.455-3.753.627.627 0 0 1 .737.48.628.628 0 0 1-.461.749 18.265 18.265 0 0 0-7.912 3.48.626.626 0 0 1-.409.151ZM326.616 328.816a.623.623 0 0 1-.529-.287.628.628 0 0 1-.087-.474c.057-.267 5.677-26.793 4.7-34.648-.985-7.893-9.816-32.785-9.905-33.036a.634.634 0 0 1 .386-.794.63.63 0 0 1 .801.372c.365 1.029 8.965 25.273 9.967 33.3 1.007 8.066-4.481 33.969-4.715 35.068a.633.633 0 0 1-.618.499ZM190.88 331.916a.617.617 0 0 1-.27-.062.617.617 0 0 1-.324-.357.632.632 0 0 1 .024-.482l17.72-37.174a.639.639 0 0 1 .357-.335.63.63 0 0 1 .78.877l-17.72 37.174a.623.623 0 0 1-.232.261.62.62 0 0 1-.335.098Z" fill="#29263B"/><path d="M105.858 323.021a.626.626 0 0 1-.603-.452.627.627 0 0 1 .262-.707L116 315.129a.628.628 0 0 1 .68 1.059l-10.48 6.734a.637.637 0 0 1-.342.099Z" fill="#000"/><path d="M238.024 179.078a.591.591 0 0 1-.578-.463c-.848-3.773-2.845-6.076-6.283-7.248a.592.592 0 0 1 .383-1.121 10.28 10.28 0 0 1 7.057 8.109.596.596 0 0 1-.579.723Z" fill="#29263B"/><path d="M203.328 212.4c9.165 1.611 17.853 6.018 24.072 9.871a84.287 84.287 0 0 1 9.342 6.6c3.475-9.216 5.666-25.878 3.533-43.127-22.391.592-17.889-28.67-.5-21.159l.118-33.528a90.54 90.54 0 0 1 24.5-3.1l4.217-18.339 5.9 18.2 44.308.4 11.468-.166s.19-24.429-12.155-37.081c-19.5-20-74.66-22.912-92.336-4.028-15.543 10.473-18.576 27.082-19.311 35.209-1.063 11.548-3.156 90.248-3.156 90.248Z" fill="#2E5DE6"/><path d="M294.222 185.352a.592.592 0 0 1-.175-1.158c2.432-.755 6.384-2.541 6.635-4.12.269-1.7-3.01-8.9-5.14-13.032a.58.58 0 0 1 .062-.666.598.598 0 0 1 .411-.212.594.594 0 0 1 .579.336c.583 1.129 5.677 11.112 5.258 13.76-.448 2.816-6.739 4.844-7.455 5.066a.613.613 0 0 1-.175.026ZM269.986 198.258a.59.59 0 0 1-.57-.757.592.592 0 0 1 .201-.299 13.396 13.396 0 0 1 12.694-2.47.596.596 0 0 1 .392.724.593.593 0 0 1-.709.418 12.278 12.278 0 0 0-11.64 2.256.592.592 0 0 1-.368.128ZM258.476 143.532a1.415 1.415 0 0 1-1.234-.718 1.425 1.425 0 0 1 .011-1.428c3.024-5.114 7.459-7 13.182-5.593a1.42 1.42 0 0 1 .823 2.23 1.415 1.415 0 0 1-1.5.532c-4.485-1.1-7.681.26-10.057 4.278a1.418 1.418 0 0 1-1.225.699ZM313.666 140.861a1.43 1.43 0 0 1-.706-.187 1.434 1.434 0 0 1-.519-.513c-1.587-2.682-3.676-3.409-6.765-2.355a1.428 1.428 0 0 1-1.086-.07 1.42 1.42 0 0 1 .169-2.621c4.357-1.481 7.857-.239 10.129 3.6a1.425 1.425 0 0 1-.508 1.953 1.412 1.412 0 0 1-.714.193Z" fill="#29263B"/><path fill-rule="evenodd" clip-rule="evenodd" d="M270.274 148.071c-2.026 0-3.672 3.012-3.672 6.72 0 3.708 1.646 6.721 3.672 6.721 2.026 0 3.672-3.011 3.672-6.721s-1.643-6.72-3.672-6.72ZM306.058 146.979c-1.868 0-3.384 2.774-3.384 6.193 0 3.419 1.516 6.194 3.384 6.194 1.868 0 3.383-2.777 3.383-6.194s-1.516-6.193-3.383-6.193Z" fill="#29263B"/><path d="M457.855 287.207a37.63 37.63 0 0 0 6.32 6.018c3.324 2.543 10.879-6.371 17.577-6.8 1.23-.07 2.46.136 3.6.605 2.8-3.072 3.021-9.745-3.727-10.551v-.025c-.3-.025-.6-.051-.932-.051-8.435-.303-17.953 9.097-22.838 10.804ZM472.611 268.976c.68-9.594-23.544-1.234-26.515-.4a38.468 38.468 0 0 1 6.043 9.317c3.551-1.385 9.065-4.558 17.047-7.882a15.372 15.372 0 0 1 3.425-1.011v-.024Z" fill="#FFBF9B"/><path d="M407.77 267.314a100.987 100.987 0 0 1-8.385 7c12.263 7.932 20.422 19.692 25.257 34.171 5.439-7.1 8.838-11.911 8.838-11.911s25.256 18.08 27.976 18.13c2.745.051 16.166-9.09 24.45-14.831 6.7-4.659 4.206-10.853-.554-12.842a8.217 8.217 0 0 0-3.6-.605c-6.7.428-14.253 9.342-17.577 6.8a37.59 37.59 0 0 1-6.32-6.018 46.082 46.082 0 0 1-5.716-9.317 38.468 38.468 0 0 0-6.043-9.317 30.994 30.994 0 0 0-7.63-5.817c-3.248-6.547-5.238-10.978-8.033-13.648-2.518-2.417 1.058-8.334-2.316-17.223-3.4-8.889-15.386-8.939-13.774.1 1.611 9.065-4.558 32.684-6.573 35.328Z" fill="#FFBF9B"/><path d="M481.626 276.455c.881-5.087-2.946-8.587-9.015-7.454a15.325 15.325 0 0 0-3.425 1.007c-7.982 3.324-13.5 6.5-17.047 7.882a46.11 46.11 0 0 0 5.716 9.317c4.885-1.712 14.4-11.105 22.839-10.8.327-.007.63.023.932.048Z" fill="#FFBF9B"/><path d="M428.134 263.593a.63.63 0 0 1-.173-1.236c4.456-1.273 7.34-1.314 10.642-.146a.628.628 0 0 1 .061 1.161.628.628 0 0 1-.481.025c-2.561-.9-5.106-1.192-9.876.171a.635.635 0 0 1-.173.025ZM452.139 278.52a.632.632 0 0 1-.549-.934.626.626 0 0 1 .32-.282c1.526-.6 3.4-1.515 5.768-2.679 3.008-1.479 6.752-3.318 11.266-5.2a15.82 15.82 0 0 1 3.566-1.047.632.632 0 0 1 .593.984.63.63 0 0 1-.393.259 14.55 14.55 0 0 0-3.283.966c-4.479 1.866-8.2 3.695-11.2 5.165-2.4 1.178-4.29 2.108-5.865 2.723a.633.633 0 0 1-.223.045ZM457.855 287.837a.625.625 0 0 1-.619-.524.627.627 0 0 1 .411-.7 34.149 34.149 0 0 0 6.184-3.631c4.945-3.3 11.122-7.441 16.885-7.207.316-.013.633.004.946.051a.638.638 0 0 1 .519.916.612.612 0 0 1-.364.312.625.625 0 0 1-.243.028c-.3-.024-.576-.048-.88-.048-5.392-.174-11.369 3.793-16.163 7a34.538 34.538 0 0 1-6.468 3.772.64.64 0 0 1-.208.031Z" fill="#29263B"/><path d="M465.6 294.316a2.873 2.873 0 0 1-1.8-.591 38.063 38.063 0 0 1-6.425-6.119 46.711 46.711 0 0 1-5.792-9.434 37.874 37.874 0 0 0-5.941-9.17.626.626 0 0 1-.168-.451.627.627 0 0 1 1.089-.407 38.572 38.572 0 0 1 6.1 9.376 46.124 46.124 0 0 0 5.683 9.286 36.878 36.878 0 0 0 6.218 5.919c1.4 1.07 4.262-.723 7.291-2.622 3.059-1.918 6.526-4.092 9.862-4.305a8.883 8.883 0 0 1 3.88.65.628.628 0 0 1 .005 1.163.629.629 0 0 1-.482.002 7.614 7.614 0 0 0-3.325-.558c-3.016.193-6.339 2.276-9.271 4.114-2.649 1.658-5.024 3.147-6.924 3.147ZM155.9 313.033a.635.635 0 0 1-.5-.253l-9.628-12.908a.628.628 0 0 1 .143-.861.627.627 0 0 1 .866.108l9.627 12.908a.63.63 0 0 1-.5 1.006h-.008ZM365.677 306.871a.633.633 0 0 1-.616-.764l1.628-7.5a.63.63 0 0 1 1.141-.201c.09.139.123.307.09.469l-1.628 7.5a.631.631 0 0 1-.615.496Z" fill="#29263B"/></svg></svg>